<?xml version="1.0" encoding="UTF-8" standalone="no"?>
<!DOCTYPE svg PUBLIC "-//W3C//DTD SVG 20010904//EN"
              "http://www.w3.org/TR/2001/REC-SVG-20010904/DTD/svg10.dtd">

<svg xmlns="http://www.w3.org/2000/svg"
     width="8in" height="4in"
     viewBox="0 0 2400 1200">
  <path id="Unnamed #1"
        fill="none" stroke="black" stroke-width="1"
        d="M 1200.00,-3.00
           C 1200.00,-3.00 0.00,1197.00 0.00,1197.00
             0.00,1197.00 200.00,1197.00 200.00,1197.00
             200.00,1197.00 747.00,645.00 747.00,645.00
             747.00,645.00 1563.00,645.00 1563.00,645.00
             1563.00,645.00 1000.00,1197.00 1000.00,1197.00
             1000.00,1197.00 1200.00,1197.00 1200.00,1197.00
             1200.00,1197.00 1700.00,697.00 1700.00,697.00
             1700.00,697.00 2200.00,1197.00 2200.00,1197.00
             2200.00,1197.00 2400.00,1197.00 2400.00,1197.00
             2400.00,1197.00 1800.00,597.00 1800.00,597.00
             1800.00,597.00 2400.00,-3.00 2400.00,-3.00
             2400.00,-3.00 2200.00,-3.00 2200.00,-3.00
             2200.00,-3.00 1700.00,497.00 1700.00,497.00
             1700.00,497.00 1200.00,-3.00 1200.00,-3.00M 1200.00,197.00
           C 1200.00,197.00 846.00,549.00 846.00,549.00
             846.00,549.00 1560.00,552.00 1560.00,552.00
             1560.00,552.00 1200.00,197.00 1200.00,197.00" />
</svg>
